<svg xmlns="http://www.w3.org/2000/svg" xmlns:xlink="http://www.w3.org/1999/xlink" width="500" zoomAndPan="magnify" viewBox="0 0 375 374.999991" height="500" preserveAspectRatio="xMidYMid meet" version="1.2"><defs><clipPath id="e38669b0ae"><path d="M 147 90.398438 L 228 90.398438 L 228 139 L 147 139 Z M 147 90.398438 "/></clipPath><clipPath id="e6096fdb42"><path d="M 139 127 L 182 127 L 182 196.898438 L 139 196.898438 Z M 139 127 "/></clipPath><clipPath id="cb51dad29f"><path d="M 192 127 L 235 127 L 235 196.898438 L 192 196.898438 Z M 192 127 "/></clipPath></defs><g id="40e79aa107"><g clip-rule="nonzero" clip-path="url(#e38669b0ae)"><path style=" stroke:none;fill-rule:nonzero;fill:#0a2463;fill-opacity:1;" d="M 227.109375 114.335938 C 227.109375 113.9375 227.007812 113.570312 226.808594 113.226562 C 226.609375 112.882812 226.339844 112.609375 225.996094 112.414062 L 188.378906 90.691406 C 188.035156 90.496094 187.664062 90.398438 187.265625 90.398438 C 186.871094 90.398438 186.5 90.496094 186.15625 90.691406 L 148.539062 112.417969 C 148.195312 112.613281 147.921875 112.882812 147.722656 113.226562 C 147.527344 113.570312 147.425781 113.941406 147.425781 114.335938 C 147.425781 114.734375 147.527344 115.101562 147.722656 115.445312 C 147.921875 115.789062 148.195312 116.058594 148.539062 116.253906 L 186.15625 137.980469 C 186.496094 138.183594 186.867188 138.285156 187.265625 138.285156 C 187.664062 138.285156 188.035156 138.183594 188.378906 137.980469 L 225.996094 116.253906 C 226.339844 116.058594 226.609375 115.789062 226.808594 115.445312 C 227.007812 115.101562 227.109375 114.734375 227.109375 114.335938 Z M 227.109375 114.335938 "/></g><g clip-rule="nonzero" clip-path="url(#e6096fdb42)"><path style=" stroke:none;fill-rule:nonzero;fill:#0a2463;fill-opacity:1;" d="M 180.886719 149.128906 L 143.257812 127.402344 C 142.914062 127.203125 142.542969 127.101562 142.148438 127.101562 C 141.75 127.101562 141.378906 127.203125 141.039062 127.402344 C 140.695312 127.601562 140.421875 127.871094 140.226562 128.214844 C 140.027344 128.558594 139.925781 128.929688 139.929688 129.328125 L 139.929688 172.777344 C 139.929688 173.171875 140.027344 173.539062 140.226562 173.882812 C 140.421875 174.222656 140.695312 174.492188 141.039062 174.6875 L 178.664062 196.414062 C 179.007812 196.613281 179.375 196.714844 179.773438 196.714844 C 180.171875 196.714844 180.542969 196.613281 180.886719 196.414062 C 181.226562 196.214844 181.496094 195.945312 181.695312 195.605469 C 181.890625 195.261719 181.992188 194.894531 181.992188 194.5 L 181.992188 151.050781 C 181.992188 150.65625 181.894531 150.285156 181.695312 149.941406 C 181.5 149.597656 181.230469 149.328125 180.886719 149.128906 Z M 180.886719 149.128906 "/></g><g clip-rule="nonzero" clip-path="url(#cb51dad29f)"><path style=" stroke:none;fill-rule:nonzero;fill:#0a2463;fill-opacity:1;" d="M 233.488281 127.40625 C 233.144531 127.207031 232.773438 127.105469 232.378906 127.105469 C 231.980469 127.105469 231.609375 127.207031 231.269531 127.40625 L 193.648438 149.132812 C 193.304688 149.332031 193.035156 149.601562 192.835938 149.945312 C 192.640625 150.289062 192.542969 150.660156 192.542969 151.054688 L 192.542969 194.503906 C 192.542969 194.796875 192.601562 195.082031 192.714844 195.351562 C 192.828125 195.625 192.988281 195.863281 193.195312 196.070312 C 193.402344 196.277344 193.640625 196.4375 193.914062 196.550781 C 194.1875 196.664062 194.46875 196.71875 194.761719 196.71875 C 195.15625 196.71875 195.527344 196.621094 195.867188 196.417969 L 233.488281 174.683594 C 233.832031 174.488281 234.105469 174.21875 234.304688 173.878906 C 234.503906 173.535156 234.601562 173.167969 234.601562 172.769531 L 234.601562 129.320312 C 234.601562 128.925781 234.5 128.558594 234.300781 128.214844 C 234.101562 127.875 233.832031 127.605469 233.488281 127.40625 Z M 233.488281 127.40625 "/></g><g style="fill:#3e92cc;fill-opacity:1;"><g transform="translate(45.036014, 243.679746)"><path style="stroke:none" d="M 0.578125 -18.015625 L 13.625 -18.015625 L 13.625 -14.5 L 9.015625 -14.5 L 9.015625 0 L 5.1875 0 L 5.1875 -14.5 L 0.578125 -14.5 Z M 0.578125 -18.015625 "/></g></g><g style="fill:#3e92cc;fill-opacity:1;"><g transform="translate(66.481989, 243.679746)"><path style="stroke:none" d="M 11.375 -18.015625 L 15.21875 -18.015625 L 15.21875 -6.5 C 15.21875 -5.601562 15.03125 -4.738281 14.65625 -3.90625 C 14.28125 -3.082031 13.769531 -2.351562 13.125 -1.71875 C 12.488281 -1.09375 11.742188 -0.59375 10.890625 -0.21875 C 10.035156 0.144531 9.113281 0.328125 8.125 0.328125 C 7.164062 0.328125 6.253906 0.144531 5.390625 -0.21875 C 4.523438 -0.59375 3.773438 -1.09375 3.140625 -1.71875 C 2.503906 -2.351562 2 -3.082031 1.625 -3.90625 C 1.25 -4.738281 1.0625 -5.601562 1.0625 -6.5 L 1.0625 -18.015625 L 4.90625 -18.015625 L 4.90625 -7.265625 C 4.90625 -6.753906 4.988281 -6.273438 5.15625 -5.828125 C 5.320312 -5.378906 5.550781 -4.976562 5.84375 -4.625 C 6.132812 -4.28125 6.476562 -4.003906 6.875 -3.796875 C 7.269531 -3.597656 7.6875 -3.5 8.125 -3.5 C 8.582031 -3.5 9.003906 -3.597656 9.390625 -3.796875 C 9.785156 -4.003906 10.128906 -4.28125 10.421875 -4.625 C 10.722656 -4.976562 10.957031 -5.378906 11.125 -5.828125 C 11.289062 -6.273438 11.375 -6.753906 11.375 -7.265625 Z M 11.375 -18.015625 "/></g></g><g style="fill:#3e92cc;fill-opacity:1;"><g transform="translate(89.985875, 243.679746)"><path style="stroke:none" d=""/></g></g><g style="fill:#3e92cc;fill-opacity:1;"><g transform="translate(104.216488, 243.679746)"><path style="stroke:none" d="M 7.75 -18.015625 L 7.75 -14.765625 L 6.40625 -14.765625 L 6.40625 -3.234375 L 7.75 -3.234375 L 7.75 0 L 1.1875 0 L 1.1875 -3.234375 L 2.546875 -3.234375 L 2.546875 -14.765625 L 1.1875 -14.765625 L 1.1875 -18.015625 Z M 7.75 -18.015625 "/></g></g><g style="fill:#3e92cc;fill-opacity:1;"><g transform="translate(120.37797, 243.679746)"><path style="stroke:none" d="M 13.515625 -18.015625 L 17.359375 -18.015625 L 17.359375 0 L 13.6875 0 L 5.03125 -11.765625 L 5.03125 0 L 1.1875 0 L 1.1875 -18.015625 L 4.796875 -18.015625 L 13.515625 -6.171875 Z M 13.515625 -18.015625 "/></g></g><g style="fill:#3e92cc;fill-opacity:1;"><g transform="translate(146.16842, 243.679746)"><path style="stroke:none" d="M 15.75 -18.015625 L 19.9375 -18.015625 L 12.34375 0 L 8.109375 0 L 0.53125 -18.015625 L 4.71875 -18.015625 L 10.234375 -4.546875 Z M 15.75 -18.015625 "/></g></g><g style="fill:#3e92cc;fill-opacity:1;"><g transform="translate(173.889739, 243.679746)"><path style="stroke:none" d="M 1.21875 -18.015625 L 12.46875 -18.015625 L 12.46875 -14.5 L 5.078125 -14.5 L 5.078125 -11.25 L 11.578125 -11.25 L 11.578125 -7.75 L 5.078125 -7.75 L 5.078125 -3.484375 L 12.46875 -3.484375 L 12.46875 0 L 1.21875 0 Z M 1.21875 -18.015625 "/></g></g><g style="fill:#3e92cc;fill-opacity:1;"><g transform="translate(194.827596, 243.679746)"><path style="stroke:none" d="M 13.515625 -18.015625 L 17.359375 -18.015625 L 17.359375 0 L 13.6875 0 L 5.03125 -11.765625 L 5.03125 0 L 1.1875 0 L 1.1875 -18.015625 L 4.796875 -18.015625 L 13.515625 -6.171875 Z M 13.515625 -18.015625 "/></g></g><g style="fill:#3e92cc;fill-opacity:1;"><g transform="translate(220.618045, 243.679746)"><path style="stroke:none" d="M 0.578125 -18.015625 L 13.625 -18.015625 L 13.625 -14.5 L 9.015625 -14.5 L 9.015625 0 L 5.1875 0 L 5.1875 -14.5 L 0.578125 -14.5 Z M 0.578125 -18.015625 "/></g></g><g style="fill:#3e92cc;fill-opacity:1;"><g transform="translate(242.064032, 243.679746)"><path style="stroke:none" d="M 12.265625 -18.015625 L 19.796875 0 L 15.625 0 L 14 -3.859375 L 6.359375 -3.859375 L 4.75 0 L 0.5625 0 L 8.078125 -18.015625 Z M 12.546875 -7.375 L 10.1875 -13.03125 L 7.828125 -7.375 Z M 12.546875 -7.375 "/></g></g><g style="fill:#3e92cc;fill-opacity:1;"><g transform="translate(269.658298, 243.679746)"><path style="stroke:none" d="M 14.15625 -12.65625 C 14.15625 -12.070312 14.070312 -11.519531 13.90625 -11 C 13.75 -10.488281 13.523438 -10.015625 13.234375 -9.578125 C 12.953125 -9.148438 12.601562 -8.769531 12.1875 -8.4375 C 11.78125 -8.113281 11.34375 -7.847656 10.875 -7.640625 L 16.84375 0 L 12.34375 0 L 6.78125 -7.265625 L 5.0625 -7.265625 L 5.0625 0 L 1.1875 0 L 1.1875 -18.015625 L 8.96875 -18.015625 C 9.675781 -18.015625 10.347656 -17.875 10.984375 -17.59375 C 11.617188 -17.3125 12.171875 -16.925781 12.640625 -16.4375 C 13.109375 -15.957031 13.476562 -15.390625 13.75 -14.734375 C 14.019531 -14.085938 14.15625 -13.394531 14.15625 -12.65625 Z M 8.484375 -10.765625 C 8.972656 -10.765625 9.394531 -10.945312 9.75 -11.3125 C 10.113281 -11.675781 10.296875 -12.125 10.296875 -12.65625 C 10.296875 -13.164062 10.113281 -13.597656 9.75 -13.953125 C 9.394531 -14.316406 8.972656 -14.5 8.484375 -14.5 L 5.0625 -14.5 L 5.0625 -10.765625 Z M 8.484375 -10.765625 "/></g></g><g style="fill:#3e92cc;fill-opacity:1;"><g transform="translate(294.356295, 243.679746)"><path style="stroke:none" d="M 7.75 -18.015625 L 7.75 -14.765625 L 6.40625 -14.765625 L 6.40625 -3.234375 L 7.75 -3.234375 L 7.75 0 L 1.1875 0 L 1.1875 -3.234375 L 2.546875 -3.234375 L 2.546875 -14.765625 L 1.1875 -14.765625 L 1.1875 -18.015625 Z M 7.75 -18.015625 "/></g></g><g style="fill:#3e92cc;fill-opacity:1;"><g transform="translate(310.517777, 243.679746)"><path style="stroke:none" d="M 9.703125 -18.265625 C 10.921875 -18.265625 12.070312 -18.019531 13.15625 -17.53125 C 14.238281 -17.039062 15.179688 -16.367188 15.984375 -15.515625 C 16.796875 -14.671875 17.429688 -13.691406 17.890625 -12.578125 C 18.359375 -11.460938 18.59375 -10.269531 18.59375 -9 C 18.59375 -7.738281 18.359375 -6.539062 17.890625 -5.40625 C 17.429688 -4.269531 16.796875 -3.28125 15.984375 -2.4375 C 15.179688 -1.59375 14.238281 -0.921875 13.15625 -0.421875 C 12.070312 0.078125 10.921875 0.328125 9.703125 0.328125 C 8.484375 0.328125 7.332031 0.078125 6.25 -0.421875 C 5.164062 -0.921875 4.222656 -1.59375 3.421875 -2.4375 C 2.628906 -3.28125 2 -4.269531 1.53125 -5.40625 C 1.070312 -6.539062 0.84375 -7.738281 0.84375 -9 C 0.84375 -10.269531 1.070312 -11.460938 1.53125 -12.578125 C 2 -13.691406 2.628906 -14.671875 3.421875 -15.515625 C 4.222656 -16.367188 5.164062 -17.039062 6.25 -17.53125 C 7.332031 -18.019531 8.484375 -18.265625 9.703125 -18.265625 Z M 9.703125 -3.5 C 10.398438 -3.5 11.050781 -3.644531 11.65625 -3.9375 C 12.269531 -4.226562 12.804688 -4.625 13.265625 -5.125 C 13.722656 -5.625 14.082031 -6.203125 14.34375 -6.859375 C 14.601562 -7.515625 14.734375 -8.226562 14.734375 -9 C 14.734375 -9.757812 14.601562 -10.472656 14.34375 -11.140625 C 14.082031 -11.804688 13.722656 -12.390625 13.265625 -12.890625 C 12.804688 -13.390625 12.269531 -13.78125 11.65625 -14.0625 C 11.050781 -14.351562 10.398438 -14.5 9.703125 -14.5 C 9.003906 -14.5 8.347656 -14.351562 7.734375 -14.0625 C 7.128906 -13.78125 6.597656 -13.390625 6.140625 -12.890625 C 5.691406 -12.390625 5.332031 -11.804688 5.0625 -11.140625 C 4.800781 -10.472656 4.671875 -9.757812 4.671875 -9 C 4.671875 -8.226562 4.800781 -7.515625 5.0625 -6.859375 C 5.332031 -6.203125 5.691406 -5.625 6.140625 -5.125 C 6.597656 -4.625 7.128906 -4.226562 7.734375 -3.9375 C 8.347656 -3.644531 9.003906 -3.5 9.703125 -3.5 Z M 9.703125 -3.5 "/></g></g><g style="fill:#3e92cc;fill-opacity:1;"><g transform="translate(164.895382, 278.929743)"><path style="stroke:none" d="M 12.5 -18.015625 L 17.15625 -18.015625 L 10.71875 -8.4375 L 10.71875 0 L 6.890625 0 L 6.890625 -8.4375 L 0.453125 -18.015625 L 5.109375 -18.015625 L 8.8125 -12.46875 Z M 12.5 -18.015625 "/></g></g><g style="fill:#3e92cc;fill-opacity:1;"><g transform="translate(189.745802, 278.929743)"><path style="stroke:none" d="M 12.265625 -18.015625 L 19.796875 0 L 15.625 0 L 14 -3.859375 L 6.359375 -3.859375 L 4.75 0 L 0.5625 0 L 8.078125 -18.015625 Z M 12.546875 -7.375 L 10.1875 -13.03125 L 7.828125 -7.375 Z M 12.546875 -7.375 "/></g></g></g></svg>